<svg xmlns="http://www.w3.org/2000/svg" id="Layer_1" data-name="Layer 1" viewBox="0 0 1080 643.16"><defs><style>.cls-1{fill:#fff;fill-rule:evenodd;}</style></defs><title>100% branco completo para o rodapé</title><path class="cls-1" d="M603.53,324.78h4.17v258h-4.17v-258Zm84.26,78.72h-5.43V370.25L669.65,393h-3L654,370.25V403.5H648.9V364.78h7l12.48,22.28,12.45-22.28h7V403.5Zm30.29-6.91v-8.43q-10.89.43-14,2.13T701,394.92q0,5.22,7.19,5.22a17.33,17.33,0,0,0,9.93-3.55Zm0,6.91v-3.23a25.74,25.74,0,0,1-6.78,3.32,20.48,20.48,0,0,1-5.4.71,10.71,10.71,0,0,1-7.33-2.57A8.82,8.82,0,0,1,700,387.58q4.35-2.55,18.1-3v-.88a5.11,5.11,0,0,0-2-4.48c-1.37-1-3.76-1.45-7.19-1.45a29.34,29.34,0,0,0-10.07,2.06h-.24v-4.7a44.76,44.76,0,0,1,10.52-1.32c4.89,0,8.47.81,10.74,2.4s3.4,4.1,3.4,7.47V403.5Zm20.31-34.84h-5.82V364h5.82v4.7Zm-.32,34.84h-5.15v-29h5.15v29Zm19.31.7a28.61,28.61,0,0,1-11.63-2.39v-5.24h.2a21.34,21.34,0,0,0,11.72,3.85q8.15,0,8.14-4.52a3.54,3.54,0,0,0-1.07-2.76,10.5,10.5,0,0,0-4.5-1.66c-1.92-.33-4.1-.75-6.57-1.26a11.54,11.54,0,0,1-5.75-2.71,6.59,6.59,0,0,1-2-5,7.38,7.38,0,0,1,3.57-6.3c2.37-1.63,5.54-2.46,9.52-2.46a25.79,25.79,0,0,1,10.78,2.11v5h-.21a19.57,19.57,0,0,0-10.84-3.32,11.5,11.5,0,0,0-5.57,1.14,3.51,3.51,0,0,0-2,3.18,3.42,3.42,0,0,0,1.1,2.75,10.89,10.89,0,0,0,4.37,1.67l6.45,1.23a11.67,11.67,0,0,1,6,2.71,6.71,6.71,0,0,1,2,5,7.47,7.47,0,0,1-3.71,6.45q-3.71,2.49-10,2.49Zm67.27,10h-5.13V400.06q-5.61,4-10.93,4a11.69,11.69,0,0,1-9.33-4q-3.43-4-3.44-11A15.33,15.33,0,0,1,800,378a13.78,13.78,0,0,1,10.31-4.3,20.88,20.88,0,0,1,9.21,2.25l.41-1.44h4.72v39.76Zm-5.13-17.84V379.43a21.62,21.62,0,0,0-8.1-1.75,9.82,9.82,0,0,0-7.57,2.94c-1.8,2-2.71,4.75-2.71,8.34q0,10.85,8.91,10.84a15.57,15.57,0,0,0,9.47-3.42Zm42.12,7.12H856.5V400q-6,4.29-11.48,4.29c-3.45,0-6.08-.94-7.92-2.81s-2.74-4.56-2.74-8.06v-19h5.13v16.33c0,3.73.57,6.21,1.72,7.42s3,1.82,5.56,1.82q4.56,0,9.73-3.72V374.46h5.14v29ZM874.41,386h19.38q-.24-8.66-9-8.66a10.75,10.75,0,0,0-7.18,2.31,9.13,9.13,0,0,0-3.16,6.35Zm12.06,18.19q-8.24,0-12.78-3.92t-4.54-11.09q0-7.11,4.35-11.31c2.9-2.81,6.75-4.2,11.55-4.2q6.54,0,10.15,3.44c2.41,2.29,3.61,5.57,3.61,9.81v2.5h-24.4q0,5.24,3.23,8.05t8.93,2.82a21.49,21.49,0,0,0,11.33-3.48h.23v4.92a36.86,36.86,0,0,1-11.66,2.46ZM667.28,473.61q-9.87,0-15.47-5.25t-5.6-14.77q0-9.34,5.68-14.72t15.42-5.37A35,35,0,0,1,681.86,437v5.64h-.41A24,24,0,0,0,667,437.53q-6.94,0-11,4.26t-4.06,11.8c0,5,1.38,8.92,4.13,11.73s6.43,4.23,11,4.23a23.48,23.48,0,0,0,7.07-1,24.79,24.79,0,0,0,7.37-4.07h.41v5.65a47.75,47.75,0,0,1-8.72,2.93,31,31,0,0,1-5.86.59Zm34.21.11q-7,0-11.13-4.1t-4.09-11.19q0-7.1,4.12-11.24t11.1-4.13q7,0,11.11,4.1t4.12,11.27c0,4.76-1.38,8.5-4.11,11.21s-6.44,4.08-11.12,4.08Zm0-26.81a9.18,9.18,0,0,0-7.33,3c-1.72,2-2.57,4.82-2.57,8.56s.85,6.5,2.57,8.47a10.57,10.57,0,0,0,14.67,0c1.72-2,2.56-4.79,2.56-8.47q0-11.52-9.9-11.52Zm50,26h-5.13V456.65q0-5.65-1.7-7.49c-1.12-1.22-3-1.84-5.58-1.84-3.05,0-6.31,1.26-9.73,3.76v21.84h-5.14v-29h5.14v3.5q5.8-4.32,11.48-4.32c3.41,0,6,.94,7.89,2.81s2.77,4.58,2.77,8.14v18.91Zm20.14.56q-10.23,0-10.22-9.9v-16h-3.77v-3.7h3.79v-8.35h5.11v8.35h11.57v3.7H766.56V461q0,4.58.72,5.92a4.37,4.37,0,0,0,2.17,2,9.57,9.57,0,0,0,3.74.63,14.46,14.46,0,0,0,4.77-.92h.17v4.1a30.8,30.8,0,0,1-6.48.75ZM803.81,466v-8.43c-7.26.29-11.94,1-14,2.12s-3.11,2.67-3.11,4.63q0,5.22,7.19,5.22a17.39,17.39,0,0,0,9.93-3.54Zm0,6.91v-3.24A25.57,25.57,0,0,1,797,473a20.56,20.56,0,0,1-5.41.72,10.74,10.74,0,0,1-7.33-2.58A8.81,8.81,0,0,1,785.71,457q4.34-2.55,18.1-3.05v-.87a5.15,5.15,0,0,0-2-4.49c-1.37-1-3.76-1.45-7.19-1.45a29.34,29.34,0,0,0-10.08,2.06h-.24v-4.7a44.76,44.76,0,0,1,10.52-1.32q7.34,0,10.75,2.41c2.26,1.6,3.4,4.09,3.4,7.46v19.87Zm20-1.55-.44,1.55h-4.74V432.47h5.15v14.6q5.64-4,11-4a11.55,11.55,0,0,1,9.27,4q3.46,4,3.47,11a15.49,15.49,0,0,1-4.18,11.26,13.81,13.81,0,0,1-10.34,4.32,18.91,18.91,0,0,1-9.14-2.35Zm0-20.63V468a22.44,22.44,0,0,0,8.11,1.72,9.63,9.63,0,0,0,7.55-3q2.72-3,2.71-8.43,0-10.95-8.91-10.95a16.08,16.08,0,0,0-9.46,3.42Zm36.78-12.67H854.7v-4.7h5.82v4.7Zm-.32,34.85h-5.15v-29h5.15v29Zm15.19,0h-5.15V432.47h5.15v40.45Zm15.5-34.85h-5.81v-4.7h5.81v4.7Zm-.32,34.85h-5.14v-29h5.14v29ZM921.89,466V448.84a21.59,21.59,0,0,0-8.1-1.74,9.71,9.71,0,0,0-7.57,3c-1.8,2-2.71,4.79-2.71,8.41q0,10.94,8.92,10.94a15.3,15.3,0,0,0,9.46-3.41Zm0,6.89v-3.21c-3.76,2.66-7.4,4-10.93,4a11.65,11.65,0,0,1-9.31-4q-3.46-4-3.46-11a15.55,15.55,0,0,1,4.18-11.25,13.74,13.74,0,0,1,10.31-4.34,21.94,21.94,0,0,1,9.21,2.28V432.47H927v40.45Zm35-6.91v-8.43q-10.89.44-14,2.12c-2.07,1.12-3.11,2.67-3.11,4.63q0,5.22,7.19,5.22a17.39,17.39,0,0,0,9.93-3.54Zm0,6.91v-3.24A25.42,25.42,0,0,1,950.1,473a20.49,20.49,0,0,1-5.4.72,10.7,10.7,0,0,1-7.33-2.58A8.81,8.81,0,0,1,938.78,457q4.35-2.55,18.1-3.05v-.87a5.15,5.15,0,0,0-2-4.49c-1.37-1-3.76-1.45-7.19-1.45a29.34,29.34,0,0,0-10.07,2.06h-.24v-4.7a44.76,44.76,0,0,1,10.52-1.32c4.88,0,8.47.81,10.74,2.41s3.4,4.09,3.4,7.46v19.87ZM993,466V448.84a21.63,21.63,0,0,0-8.1-1.74,9.69,9.69,0,0,0-7.57,3c-1.81,2-2.71,4.79-2.71,8.41q0,10.94,8.91,10.94A15.35,15.35,0,0,0,993,466Zm0,6.89v-3.21c-3.76,2.66-7.4,4-10.94,4a11.63,11.63,0,0,1-9.3-4q-3.46-4-3.46-11a15.55,15.55,0,0,1,4.18-11.25,13.74,13.74,0,0,1,10.31-4.34,22,22,0,0,1,9.21,2.28V432.47h5.13v40.45Zm17.9-17.53h19.37q-.24-8.65-9-8.65a10.8,10.8,0,0,0-7.18,2.3,9.15,9.15,0,0,0-3.16,6.35ZM1023,473.58q-8.24,0-12.78-3.92t-4.54-11.08q0-7.12,4.35-11.32t11.55-4.2q6.54,0,10.15,3.44t3.61,9.81v2.5h-24.4c0,3.49,1.07,6.18,3.23,8.06s5.12,2.81,8.92,2.81a21.6,21.6,0,0,0,11.34-3.47h.23v4.91a36.91,36.91,0,0,1-11.66,2.46Zm30.86-7.68-8.24,16.52h-3.92l5.15-16.52Zm-371,73.83a46.85,46.85,0,0,1-8.82,2.8,36.71,36.71,0,0,1-6.31.57q-10.11,0-15.93-5.3c-3.86-3.52-5.81-8.45-5.81-14.77s2-11.11,5.89-14.73,9.22-5.44,15.88-5.44a37,37,0,0,1,15.1,3.26v7.94h-1q-6.85-5.13-13-5.14a12.09,12.09,0,0,0-9.29,3.69q-3.42,3.69-3.42,10.45c0,4.46,1.16,7.92,3.47,10.34a12.3,12.3,0,0,0,9.3,3.63,19.29,19.29,0,0,0,5.93-.93,25.61,25.61,0,0,0,7.1-4.18h.93v7.81Zm21.3,3.52q-8.24,0-12.79-4.17t-4.56-11.6q0-7.46,4.6-11.65t12.75-4.18q8.22,0,12.79,4.18t4.58,11.65q0,7.42-4.58,11.6t-12.79,4.17Zm0-26.1q-8,0-8,10.4,0,10.22,8.1,10.2,7.86,0,7.86-10.2,0-10.41-8-10.4Zm55.75,25.18h-9V527.51c0-4.15-.51-6.73-1.55-7.73s-2.73-1.5-5.08-1.5a15.16,15.16,0,0,0-7,2.29v21.76h-9V512.57h9v4.17a33.71,33.71,0,0,1,6.74-4,14.57,14.57,0,0,1,5.27-1q10.7,0,10.7,11v19.55Zm41.28,0h-9V517.68h-13.5v24.65h-9V517.79H765v-5.22h4.61v-1q0-9.94,12.42-9.94a48.26,48.26,0,0,1,7,.44v5.52h-.23a17.7,17.7,0,0,0-4.3-.56c-2.37,0-4,.36-4.89,1.09s-1.33,2-1.33,3.94v.54h22.79v29.76Zm.32-33.48v-7h-9.2v7Zm37.66,33.48h-8.91v-3.88a23.9,23.9,0,0,1-6.67,3.89,18.62,18.62,0,0,1-5.46.79,10.8,10.8,0,0,1-7.36-2.54,8.24,8.24,0,0,1-2.92-6.51,8.39,8.39,0,0,1,4.31-7.63q4.3-2.6,18.19-3.24v-.8a4.3,4.3,0,0,0-2.2-4c-1.45-.84-3.87-1.26-7.24-1.26q-3.45,0-9.87,2.31h-.33v-6.24a59,59,0,0,1,12.28-1.44c5.7,0,9.83.8,12.36,2.43s3.82,4.19,3.82,7.72v20.45Zm-8.91-7.25v-7.5q-8.84.64-11,2a4.16,4.16,0,0,0-2.22,3.74,3.9,3.9,0,0,0,1.54,3.55,9.26,9.26,0,0,0,4.86,1,10.74,10.74,0,0,0,6.86-2.78Zm49.58,7.25h-9V527.51q0-6.22-1.56-7.73t-5.07-1.5a15.13,15.13,0,0,0-7,2.29v21.76h-9V512.57h9v4.17a33.17,33.17,0,0,1,6.74-4,14.48,14.48,0,0,1,5.26-1q10.7,0,10.7,11v19.55Zm35.53-1.47c-1,.4-2.65.95-4.94,1.67l.09,1.83a8.17,8.17,0,0,1-2.73,6.48,11,11,0,0,1-7.44,2.36,25.25,25.25,0,0,1-5.91-.67v-4.91h.41a12.62,12.62,0,0,0,4.62,1.06q5.29,0,5.3-4.63c0-.33,0-.63,0-.92q-8.71-.07-13.58-4.12t-4.86-11.43q0-7.53,5-11.68t13.45-4.15A25.92,25.92,0,0,1,915.3,514v7.26h-.47q-5-3.91-9.79-3.91a9,9,0,0,0-7,2.7,10.69,10.69,0,0,0-2.48,7.5c0,3.21.84,5.65,2.5,7.36s4,2.56,7.08,2.56q4.91,0,9.65-3.91h.47v7.27Zm34.91,1.47H941.3v-3.88a23.92,23.92,0,0,1-6.68,3.89,18.55,18.55,0,0,1-5.45.79,10.78,10.78,0,0,1-7.36-2.54,8.2,8.2,0,0,1-2.92-6.51,8.37,8.37,0,0,1,4.31-7.63q4.31-2.6,18.19-3.24v-.8a4.3,4.3,0,0,0-2.2-4c-1.45-.84-3.87-1.26-7.24-1.26q-3.45,0-9.87,2.31h-.33v-6.24A59,59,0,0,1,934,511.73c5.7,0,9.83.8,12.36,2.43s3.82,4.19,3.82,7.72v20.45Zm-8.91-7.25v-7.5q-8.84.64-11,2a4.17,4.17,0,0,0-2.23,3.74,3.91,3.91,0,0,0,1.55,3.55,9.24,9.24,0,0,0,4.85,1,10.77,10.77,0,0,0,6.87-2.78Zm30.06-31.47-1.17,27.47H962l-1.2-27.47Zm-.24,38.72H961v-6.68h10.08Z"></path><path class="cls-1" d="M66.5,521.58v29.54c0,5,2.78,7.54,8.34,7.54h54.23c7.71,0,9.64,1.78,9.64,8.9v1.8c0,7.14-1.93,8.92-9.64,8.92H68.42c-17.15,0-24.43-6.72-24.43-22.59V472c0-15.85,7.28-22.58,24.43-22.58h60.65c7.71,0,9.64,1.77,9.64,8.92v1.76c0,7.17-1.93,8.95-9.64,8.95H74.84c-5.56,0-8.34,2.58-8.34,7.52v25.36h54c7.71,0,9.65,1.8,9.65,8.95v1.77c0,7.15-1.94,8.93-9.65,8.93Z"></path><path class="cls-1" d="M150.93,458.54c0-7.35,1.93-9.12,9.85-9.12h2.78c7.94,0,9.87,1.77,9.87,9.12v92.58c0,5,2.78,7.54,8.36,7.54h45.63c7.73,0,9.66,1.78,9.66,8.9v1.8c0,7.14-1.93,8.92-9.66,8.92H175.36c-17.16,0-24.43-6.72-24.43-22.59Z"></path><path class="cls-1" d="M245.86,458.54c0-7.35,1.93-9.12,9.86-9.12h2.78c7.93,0,9.86,1.77,9.86,9.12V569.17c0,7.33-1.93,9.11-9.86,9.11h-2.78c-7.93,0-9.86-1.78-9.86-9.11Z"></path><path class="cls-1" d="M278,458.34c0-7.15,1.91-8.92,9.64-8.92H377c7.71,0,9.65,1.77,9.65,8.92v1.76c0,7.17-1.94,8.95-9.65,8.95H343.8V569.17c0,7.33-1.94,9.11-9.87,9.11h-3c-7.93,0-9.85-1.78-9.85-9.11V469.05H287.65c-7.73,0-9.64-1.78-9.64-8.95Z"></path><path class="cls-1" d="M417.51,521.58v29.54c0,5,2.79,7.54,8.35,7.54h54.22c7.72,0,9.66,1.78,9.66,8.9v1.8c0,7.14-1.94,8.92-9.66,8.92H419.43c-17.13,0-24.42-6.72-24.42-22.59V472c0-15.85,7.29-22.58,24.42-22.58h60.65c7.72,0,9.66,1.77,9.66,8.92v1.76c0,7.17-1.94,8.95-9.66,8.95H425.86c-5.56,0-8.35,2.58-8.35,7.52v25.36h54c7.7,0,9.64,1.8,9.64,8.95v1.77c0,7.15-1.94,8.93-9.64,8.93Z"></path><path class="cls-1" d="M128,267.2a.23.23,0,0,0-.1.14h0Z"></path><path class="cls-1" d="M139.51,390.6c-2.58-34.62,96-66.67,199.47-69.07a38.48,38.48,0,0,0,37.58-39.19,549.29,549.29,0,0,0-80.29,6.05c-109.59,16.11-194,59.37-188.51,96.61,3.5,23.82,43,39.45,99.75,43.34C167.19,421.2,140.76,407.77,139.51,390.6Z"></path><path class="cls-1" d="M365,300.08C258.83,302.53,157.6,334,150.63,369.16,179,343.71,257.46,323.42,339,321.53a38.52,38.52,0,0,0,34.11-22.44A41.18,41.18,0,0,1,365,300.08Z"></path><path class="cls-1" d="M265.33,225.55C324.38,201.78,396.59,200,416.12,109.63,373.3,125.72,299.28,159,259.66,182.07,131.13,256.9,108.86,304.61,106.22,324.92,114.35,306.46,147.37,273,265.33,225.55Z"></path><path class="cls-1" d="M387.12,121.18c-23.76,59.34-83.25,68.6-131.9,93C149.75,267.14,116.23,302,106.69,322a28.07,28.07,0,0,0-.47,2.9c8.13-18.46,41.15-51.93,159.11-99.37C324.38,201.78,396.59,200,416.12,109.63,407.55,112.83,397.68,116.78,387.12,121.18Z"></path><path class="cls-1" d="M105.62,354.11c9.51-12.55,25.48-24.75,47.73-36.14,36.75-18.84,86.88-33.61,141.16-41.59,9-1.31,18-2.45,27.11-3.36A130.74,130.74,0,0,0,430.81,188.9v-.05C235.5,231.44,80.33,319.17,105.62,354.11Z"></path><path class="cls-1" d="M104.49,343.27c-1.5,7.17,1.13,10.84,1.13,10.84,9.51-12.55,25.48-24.75,47.73-36.14,36.75-18.84,86.88-33.61,141.16-41.59,9-1.31,18.06-2.45,27.15-3.36a130.55,130.55,0,0,0,109.15-84.17c-13.05,2.88-28.95,6.79-46,11.31C333.75,256.9,191.89,245.07,104.49,343.27Z"></path><path class="cls-1" d="M147.5,316.05c-18.88,12.18-33.11,24.48-42.58,36.63a8.62,8.62,0,0,0,.7,1.43c9.51-12.55,25.48-24.75,47.73-36.14,36.75-18.84,86.88-33.61,141.16-41.59,9-1.31,18.06-2.45,27.15-3.36a130.55,130.55,0,0,0,109.15-84.17c-5.27,1.19-11,2.5-17.16,4C354.53,273.46,277.09,232.5,147.5,316.05Z"></path><path class="cls-1" d="M169.19,360.09c-2.37,1.52-4.54,3-6.55,4.6A70,70,0,0,1,169.19,360.09Z"></path></svg>